<?xml version="1.0" encoding="utf-8"?>
<!-- Generator: Adobe Illustrator 27.2.0, SVG Export Plug-In . SVG Version: 6.00 Build 0)  -->
<svg version="1.1" id="图层_1" xmlns="http://www.w3.org/2000/svg" xmlns:xlink="http://www.w3.org/1999/xlink" x="0px" y="0px"
	 viewBox="0 0 665.3 155.1" style="enable-background:new 0 0 665.3 155.1;" xml:space="preserve">
<style type="text/css">
	.st0{fill-rule:evenodd;clip-rule:evenodd;fill:#ffffff;}
	.st1{fill:#ffffff;}
</style>
<g>
	<g>
		<path class="st0" d="M610.3,47.2c0.8,1.2,1.6,1.8,2.4,2c1.3,0.3,2.4,0.1,2.9-0.3c1.2-1.2-0.8-19.4-1.9-20.4
			c-0.7-1.1-7.8-4.4-7.9-3c-0.1,2.1,1.2,3.8,1.6,6.2C608.7,38.6,609.8,46.3,610.3,47.2 M247.4,34.2L247.4,34.2
			c-4.5-1.2-8.7-1-14.4-0.4c-3.6,0.4-6.1,0.1-7.5-0.8c-1.3-0.7-1.7-2.2-1.5-4.9c0.2-2.3,0.3-4.5,0.3-6.4c0-0.9-2-2.2-2.9-2.2
			c-2.2-0.1-5.4-2.1-6-0.6c-0.6,1.9-0.3,1.6-0.2,3.9c0.1,1.1,0.5,1.9,0.6,3.1c0.1,2.5,0.1,6.8-0.4,7.4c-3.5,2.4-9.3,4-13.1,5.7
			c-2.1,0.4-3.4-2.5-5.1-3.4c-1.3-0.6-3.4-1.1-4.4-0.8v1c0.7,2.4,1.9,4.3,2.6,6.8c1.2,4.1,2.3,8.7,3.5,12.9c0.2,0.6,0.1,1.1,0.5,1.6
			c0.8,1.2,1.2,1.1,2.6,1.1c1-0.1,1.8-0.2,2-1.2c0.5-3.8-0.2-9.3,0.2-12.5c0.2-1.7-0.3-2.9,0.5-2.9c1.6-0.2,4-0.7,6.3-1
			c1.7-0.2,3.9-0.4,4.3,0c0.3,4.8-0.1,10.7,0.2,13.5c-6.6,1.2-5.3,1.7-6.3,3.8c0.7,1.5,5.3,0.1,5.9,1.9c0.1,7.5-0.9,18.3-0.9,27.3
			c0,3.2,0.7,6,0.8,8.6c0.1,2.4,0.8,5.5,1.7,7.3c0.9,1.8,1.5,2.5,2.5,2.5c0.3,0,0.7-0.1,1.2-0.6c1.9-1.9,2.3-2.7,3.7-6.4
			c0.3-1.8-0.3-4.9-0.1-10.1c0.1-2.6,1-19.2,1.1-21.4c0.1-3.3,0.2-5.1,0.3-7.4c0.9-0.6,3.8-0.9,7.7-2.7c1.8-0.8,3.3-1.1,5.7-2.6
			c0.7-0.7,1.8-1.8,5-2c8.9-0.9,10.3-1.8,10.4-3.1c0.4-4.9-0.2-4.1-1.1-7C251.8,38.4,250.6,35.1,247.4,34.2 M229.2,51L229.2,51
			c-1.4,0.4-3.5,2.2-4.4,1c-0.4-3.6-0.2-9.5-0.2-13c0-1,6-0.4,10.9-1.2c1.7-0.2,1.7,0,2.7,0.1C239.9,38.6,240.3,47.7,229.2,51
			 M327.3,41.5L327.3,41.5c-0.5-2.9-0.5-5.9-1.2-8.3c-1-3.5-2.8-5.9-4.3-8c-2.7-2.9-4.2-3.8-8.3-4c-2.5-0.1-4.3,1.7-7,2.3
			c-4.8,1-11.7,2.8-16.2,3.5c-1.5,0-6.8,3.1-7.5,5.7c1.7-0.8,3.5-1.9,5.6-2.5c1.4-0.4,3.2-0.7,6-1.1c3.2-0.7,6.4-1.3,9.3-1.8
			c4.7-0.8,5.9-0.7,9.3-0.2c1.3,0.1,2.6,2.3,3.6,4.2c1.4,2.6,1.9,4.3,2.3,6.5c0.8,4.2,0.5,9,0.6,13.9c0,4.6,0.3,10.2,0.4,13
			c0.1,4.6-1.2,9.8-1.7,14c0,0.7-0.2,3-1.5,3.2c-3.4-1.3-8.1-4.4-9.2-5.4c-1.1-0.1-2.7-5.5-2.3-7c1.2-2.8,4.3-2.5,5.7-6.9
			c1.1-3.5-0.6-4.9,0.8-12.8c1.9-10.5,1.3-11.8-2.5-14.3c-0.6-0.3-0.9-1-2.1-1.3c-2.2-0.4-5.3-0.1-5.1,0.6c1.3,4.3,2.9,4.2,5,5.9
			c2.1,1.3-0.3,7.1-1.8,11.4c-1.1,3.5-2.5,3.6-3.5,3.1c-1.4-0.9-2-3.7-2.6-5.9c-0.3-1.3-0.7-3-0.9-4.6c-0.2-1.5,0.6-3.1-0.1-4.9
			c-0.4-1.1-1.7-2.2-2.3-3.1c-0.6-1-0.9-2.1-1.3-2.6c-0.9-0.6-1.4-2.4-2.7-2.3c-3.4,0.4-0.9,7.7-2.1,9.7c-0.7,1.2-3.5,1.6-5.9,2
			c-1.1,0.2-2.7,0.7-2.9,0.9c-0.4,0.5,0.8,1.3,1.7,2.1c0.6,0.5,0.7,1,1.3,1.8c0.5,0.7,1,1,1,1.8c0.2,1.3-0.4,2.8,0.1,3.2
			c0.8,0.7,2.2-0.4,4.1-0.4c0.2,1.4-3.6,4.7-3.3,5.2c0.2,0.4,1.3,0.3,2.1,0.2c2.3-1.4,3.2-2.4,5.1-2.7c1.3,1.8,1.9,3.3,1.9,4.3
			c0.1,2.7-7.6,6.3-12.1,5.6c-0.2-1.5,0.3-4.5-0.2-4.2c-1.8,1-2.1,2.6-4.2,4.2c-1.2,1-1.6,1-2.6,1c0-4.4-0.3-14.2,0.4-15.9
			c1-2.4,0.6-6.7,0.3-8.1c-0.3-1.7-1.6-2.9-2.1-2.2c-3.2,2.8-4.3,8.4-5.8,15.4c-0.5,2.8-2,18.9-1.8,26.2c0.3,1.9,1.9,3.4,3,3.3
			c1.6-0.1,3.8-1.5,4-2.5c0.6-2.7,0.5-6.8,0.9-11c3.6,0.2,6.8,0.1,9.5-0.6c2.8-1,5.1-1.7,6.9-2.7c1.8-1,3.2-2.2,3.8-2.7
			c0.9-0.5,1.7-0.6,2.1-0.2c0,1.6,0.5,3.2,0,3.9c-2.5,2.7-3.8,4.8-3.3,5c1.4,0,3.3-1.5,4.8-1.9c0.4,0.3,0.8,0.6,0.7,1.9
			c0.3,0.9,0.5,2.1-0.3,2.8c-0.8,1.2-1.1,1.8-1.8,2.1c-1.4,0.6-3.2,0-5.4,0.2c-2.4,0.2-3.2,1-4.4,0.5c-0.5-0.2-0.5-0.8,0.4-1.6
			c0.8-0.8,1.3-2,0.9-2.6c-1.1,0.1-6.9,3.3-6.9,4.4c-0.1,3.4,0.8,3.1,0.9,4.4c0.2,2.6,0,3.3,0.5,3.8c0.1,0.4,1.9,0.4,3-0.2
			c2.3-1.1,2.3-1.3,3.6-1.8c1.3-0.5,7-1.6,10.5-1.8c2.1-0.1,7.9-1.8,8.6-1.4c2.2,2.5,5.6,4.8,6.4,5.8c1.6,3.8,3.7,4.1,4.6,5.3
			c0.9,1.3,0,3.2,0.5,3.5c0.4,0.2,2,0,2.7-0.3c2.3-1.1,3.4-2.5,4.4-3.7c1.4-1.6,0.3-17.2,1.1-29.7C328.9,56.8,327.3,49.6,327.3,41.5
			 M303.3,62.5L303.3,62.5c-0.1-0.1-0.2-2.4,0-3c0.3-0.1,1.2,0,1.9,0c0.3,0.2,0.2,1.9,0.1,3C304.8,62.7,303.8,62.7,303.3,62.5
			 M661.6,55.5L661.6,55.5c-0.6-4-4.5-7.5-7.5-8.8c-1.4-0.9-0.9-7.1,0.4-13.4c0.5-2.6,1.4-5,2-7.3c1.2-6,0-8.1-0.8-8.7
			c-1.4-0.8-2-0.5-4-0.5c-3.3,0-6.5,0.3-11.5,0.7c0-0.9-1.9-4.3-2.8-1.4c-0.4,1-1.2,3.2-2.1,4.9c-1.2,2.3-2.4,4.8-2.9,5.1
			c-2.1,0.4-5.5-0.1-7.1-0.2c0.1-1.7,0.3-4.2-0.7-5.5c-1-1.1-2.8-1.6-3.5-1.3c-1.5,0.3-0.6,9.1-1.1,18.8c-0.3,6.4-2.2,14.4-2.3,17.6
			c-3.7,2.4-6.9,3.8-10.6,6.1c-1.5,0.8-3.3,1.1-4.4,0.5c-0.3-1.8-0.8-2.7-1.5-3.6c-1.2-1.6-2-2.2-3.4-2.3c-0.3,0-2.1-0.4-2.4,0.8
			c-0.6,2.1-0.5,4.7-1,7.5c-0.2,1.1-4.5,14.5-4.2,15.3c1,1.3,1.1,2.5,2.3,2.8c2,0.3,4,0.6,5.7-1.5c3.2-3,2.8-12.6,4.9-14.7
			c1.2-0.6,3.8-1.1,4.9-1.6c2.2-0.5,2.3-1.8,8.1-4.1c3.5-1.5,6.2-1.9,9.1-2.9c4.7-1.2,5.2-2.8,7.3-3.4c2.1-0.7,4.9,0.1,7.9-0.3
			c1.3-0.2,2.3-1.1,3.4-1.5c1.1-0.4,2.2-0.3,3.7-0.7c0.6-0.1,1.5-0.1,1.9,0.3c1.4,1.2,1.6,1.6-0.2,2.8c-3.3,1.4-6.5,2.7-8.7,5.6
			c-0.9,0.5-1,0.2-3.3,1c-0.8,0.3-2.2,1.1-3.6,1.5c-4.1,0.6-9.1,1.4-13.8,2.4c-0.8,0.1-0.8,1.2-0.7,2c0.2,1.2,3.4,2.9,6.4,3
			c1.3,0,2.5-1.3,3.6-1.9c1.1-0.5,5.4-3.6,4.8-0.8c-0.3,2.3-0.6,4.2-0.8,5.2c-0.2,1.6-0.2,3.3-0.4,4.6c-1.8,1-4.2,2.1-6.7,2.7
			c-3.7,0.9-7.3,1-11.8,2.3c-3.7,1.5-5.9,5-5.3,5.8c1.8,1.5,6.2,0.7,11.2-1.1c3.8-1.4,6.6-3.2,9.7-4.8c1-0.8,3-0.7,3.1,1.5
			c-0.1,3.2-1.7,3.6-2,5.7c-0.8,2.3-4.9,2-9.5,1.5c-1.9-0.2-5.7-0.3-6.7-0.4c-1.2,0.4,2.4,1.7,3.7,2.3c1.6,0.9,3.4,0.8,6.4,1.9
			c4.4,1.7,5.7,3.6,8.2,3.8c1.8,0.3,5.4-1,7.4-3.9c1.6-3.3,0.9-7.7,0.7-13.8c0.1-1.2,0.2-1.2,0.9-1.2c0.4,0,0.9,0,1.2,0
			c2.7,0.3,4.5,0.8,5.4,1.1c1.9,0.4,3.9,1.8,5,1.9c2.4,0.3,2.6-2.6,2.2-3.1c-0.8-1.2-2-3.6-2.7-3.9c-0.9-0.6-5.1-0.4-10-0.2
			c-0.7,0-1-0.1-2-0.1c-1-0.1-1.3,0-1.5-0.6c-0.5-1.6-0.4-3.4,0.1-4.7c0.6-1.4,1.5-2.7,2.3-3.6c0.9-2-0.1-4.1,0.2-5.5
			c0.9-1.8,1.7-1.9,3.3-2.9c1.1-0.9,3.1-1,4.7-0.8c1.1,0.1,1.4,1.3,2.4,1.7c2.3,0.4,4.7,0.7,6.4,1.1C662.2,60.3,662,58.8,661.6,55.5
			 M624.9,28.2L624.9,28.2c0.8,0.2,4.8,0.1,5.5,0.1c0,1-3.1,4.9-3.4,5.1c-0.4,0.3-1.2,0.7-2.3,0.8C624.7,32.7,624.9,28.8,624.9,28.2
			 M625.2,50.7L625.2,50.7c-0.3,0-1-0.7-1.3-1.5c-0.2-2-0.3-6.1,0.2-10.7c0.8-0.7,2.6-1.5,3.7-2.2c0.5-0.3,0.8-0.9,3,1.9
			c0.7,0.8,1,1.5,1.6,2.7C628.3,47,627,49.6,625.2,50.7 M634.9,49.9L634.9,49.9c-0.3,0.5-0.7,0.7-1.1,0.7c-0.6,0-1.1-0.3-1.1-0.3
			s0.2-1.2,1.5-2C634.1,48.2,635.5,48.6,634.9,49.9 M635.1,37.9L635.1,37.9c-1.9-1.8-3.2-2.5-4.4-4.4c1.7-2.1,3.7-4.1,5.4-6.1
			c1.3,0.1,3.7-0.2,4.7-0.2c0.7,0.4,1.5,1.7,1,2.8C641.1,31.5,635.9,37.1,635.1,37.9 M645.9,44.4L645.9,44.4
			c-2.4,3.4-4.3,4.2-5.6,0.9c-0.3-1.3-1.9-3.2-2.3-4.6c1.5-2.4,3.3-3.6,3.5-3.6c2,0.1,6.3-0.4,6.3,0.6
			C646.8,41.2,646.2,42.7,645.9,44.4 M648.7,34.1L648.7,34.1c-0.6,0.6-4.4-0.3-4.7-0.3c0.8-1.6,1.6-4.7,3.1-5.6
			c0.7,0,2.5-0.6,2.9,0.3C650.2,29.5,649.4,32.7,648.7,34.1 M650.1,24L650.1,24c-1.1,0.4-4.5,0.1-6.2,2c-1.8,0.3-3.5,0.1-5,0.1
			c-0.9-0.1-1.7-0.1-1.8-0.2c0.3-1.7,2.5-5,2.9-6.7c1.7-0.4,10.2-0.1,10.5-0.1c0.6,0,0.6-0.1,0.7,1.5
			C651.2,22.4,650.9,24.1,650.1,24 M575.2,83.8L575.2,83.8c-1.6-1.2-4.8-0.9-8.6-3c-5.1-3-6.6-6-13-12.9c-1.8-1.7-3.1-3.2-4.6-5.1
			c-2.3-2.9-3.9-4.9-5.3-7.2c-0.6-0.9-2.1-2.9,0-4c4.4-2,8.5-4.5,12.4-6.1c2.7-0.3,5.3,0,8.8,0c0.5-0.1,0.9-0.5,1-1
			c0.5-1.3,0.5-2.3-0.2-3.2c-1.3-1.5-1.8-1.4-3.1-2.1c-2-0.8-3.8-1.1-5.7-0.9c-3.7,0.3-7.1,2.6-10.2,4.4c-1.6,0.9-3.9,1.7-5.2,2.4
			c-1.3,0.5-2.3,0.7-2.5,0.1c-0.8-4,0.7-10.7,2.3-15.6c0.1-0.2,0.3-2.3-0.3-3.4c-0.5-1-1.9-1.3-2.5-1.6c-2.8-1.7-5.1-2.5-6.7-0.9
			c-0.6,4.8-0.1,8.8-0.4,12.5c-0.4,5.1-0.2,9.9-1.8,12.6c-1.7,1.7-5.3,4-10.6,4.8c-1.7,0.1-2.5,0.1-4,0.1c-1.1,0-2-0.3-2.8-0.1
			c-1.3,0.4-2,0.8-1.9,2.1c0.4,2.7,1.3,2.6,3.3,3.3c2.3,0.8,4.1,0.6,5.2,0.6c3.2-0.8,4.6-1.3,8.4-1.8c0.8,0,1,1.1,0.8,2.2
			c-1.4,6.4-2.8,9.7-5,14.4c-2.4,4.9-4.4,8.5-7.9,11.9c-2,2.1-2,3.3-0.9,3.7c0.5,0.2,0.9-0.5,3.7-2c2.3-1.3,5.8-2.6,7.1-3.6
			c2.1-1.8,3.2-4.6,5.9-9.1c1.4-3.2,2-5.8,4.5-16.9c0.1-0.4,0.1-1,0.2-1.4c0.2-0.5,0.5-0.7,1.1-1.4c1-1.1,1.6-1.4,2.9-1.9
			c2.3,5.3,3.3,8.8,4.9,11.7c0.9,1.8,2.3,3.1,3.5,5c4.4,6.7,8.9,12.6,13.7,17.9c2.7,2.6,8.3,2,13.4,2c0.7,0,2.8-0.8,3.2-1.5
			C578.5,87.1,578.7,86.4,575.2,83.8 M381.3,27.8L381.3,27.8c-0.2-0.5-0.9-0.6-1.3-0.6c-0.6,0-1.2,0.2-1.7,0.6
			c-3.9,6.1-7.6,10.3-11.5,16.4c-3.7,5.1-6,10.2-8.6,14.4c-5,8.3-8.4,13.9-14.8,23c-0.4,0.5-1.2,1.5-1.4,2.3c-0.2,0.8-1,2.9,0.5,3
			c1.1,0,2.1-0.2,3.1-0.4c1.6-0.6,6.2-3.2,8.6-5.6c2.8-4.1,8.1-14.6,12.7-22.5c3-5.1,7.1-10.7,9.4-15.2
			C380.4,35.2,381.7,29.5,381.3,27.8 M496.5,66.1L496.5,66.1c-1.7,6.5-3.7,12.2-8.4,15.5c-0.8,0.6-2.7,1.6-4.3,1.4
			c-1.7-0.3-3.5-1.9-5.2-4.7c-3.2-5.5-4.9-11.3-4.4-15.6c2.1-1.1,4.8-2.8,8-5c2.3-2.5,4.4-5.1,3.7-6.5c-0.6-0.6-1.1-0.8-6.1,0.2
			c-3,0.9-6.3,3.2-7.2,3.4c-1.3-0.3-2-2.5-3.4-3.5c-1.6-1.3-5.1-1-5.5-0.3c-1.4,2.2-0.8,8.2-0.8,11.4c-0.6,1.4-7.2,6.5-9.9,8.9
			c-0.6,0.6-0.6-13.7-0.1-24.7c-0.2-1.9,14.3-0.2,15.8-1.6c1.9-1.5,4.7-6.9,6.2-10c1.4-2.9,2.7-5.9,1.5-9.1c-0.7-1.4-0.7-2-3-2.3
			c-2.4,0-3.4,1.7-4.6,2.3c-1.2,0.5-4.7,0.1-6.3,1c-2.1,1.1-4.9,3.2-7.1,4.1c-2.6,1.4-3.1,3.3-2.6,3.6c7.9-2.6,9.5-2.9,11-3.2
			c0.5,0,0.2,0.8,0,1.8c-0.2,3.9-2,5.9-3.4,8.9c-2.6,0.5-5,0.2-7.6-0.3c-1.8-0.3-4.7-2-6.5-2.3c-1-0.2-4.5,0.8-5,3.2
			c-1,4.5-0.1,8.9-0.3,15c-0.4,10-1.5,22.3-1.7,29.6c0.1,1.6,0.2,3.6,0.8,4c0.9,0.6,7,1,8.9-0.2c2.1-1.5,1.4-5.1,2.4-12.4
			c0.3-0.6,0.7-1.2,1.1-1.8c2.4-3.2,6.1-5.7,10.7-8.2c2.2,7.6,5.5,14.2,9.5,19.7c2.2,2.2,10.9,4.8,14.7,1c7.5-6.5,8.8-11.9,10.2-19
			c0.2-1.5,0.4-2.2,0.4-5.3C498,64.1,497.1,64.1,496.5,66.1 M422.7,82.4L422.7,82.4c-9.1-2.5-17-6.1-27.1-12.1
			c-11.3-6.8-19.5-15.4-21.1-13.8c-1,1.6,4.4,5.6,8.9,9.9c5.8,5.8,8.3,7,12.4,10.6c4.9,4.2,8.2,9.3,12.4,11.4
			c3.3,1.5,6.5,1.8,9.4,1.8c2.8,0,4.6,0,8.5-0.7c2.5-0.6,2.2-2.1,1.3-3.5C426.6,84.8,425.3,83.2,422.7,82.4"/>
		<path class="st1" d="M196,133.3c0,1.5,0.7,2.2,2.2,2.2h0.9v1.1h-9.8v-1.1h0.4c1.7,0.1,2.5-0.6,2.4-2.2v-11.6
			c0.1-1.5-0.6-2.3-2.3-2.2h-0.5v-1.1c0.2,0,0.5,0,0.8-0.1c1.3-0.1,2.3-0.1,2.9-0.1c2-0.2,3.6-0.2,4.6-0.2c4-0.1,6.6,0.6,7.8,2.1
			c0.9,0.9,1.3,2,1.3,3.3c-0.1,2.4-1.5,3.9-4.2,4.7c0.7,0.6,1.5,1.6,2.5,3.1c1,1.3,1.7,2.3,2.3,2.9c1,1.1,2.2,1.8,3.7,1.8v0.9h-1.8
			c-1.7,0-3-0.1-3.8-0.2c-0.9-0.3-1.6-0.8-2.3-1.5c-0.4-0.4-1-1.2-1.9-2.5c-1.3-1.8-2.3-3.1-3.1-3.7H196V133.3z M196,127.6
			L196,127.6h1.1c3.7,0,5.5-1.4,5.4-4.2c-0.1-2.7-1.7-4.2-4.9-4.2H196V127.6z"/>
		<path class="st1" d="M217.7,120v6.5h4.6c1.5,0.1,2.2-0.6,2.1-2.1h1.1v5.8h-1.1c0.2-1.5-0.6-2.2-2.5-2.1h-4.2v5.3
			c-0.1,1.1,0.3,1.6,1.1,1.5h4.7c1.8,0.2,2.8-0.8,3.2-3h1.1l-0.3,4.6h-16.9v-1.1h1.1c1.5,0.1,2.3-0.6,2.2-2.1v-11.8
			c0.1-1.5-0.7-2.1-2.4-2.1h-0.3v-1.1h15.5l0.3,4.2h-1.1c-0.2-1.9-0.9-2.8-2-2.6H217.7z"/>
		<path class="st1" d="M233.4,133c-0.1,1.8,0.8,2.6,2.7,2.4v1.1h-6.8v-1.1h0.2c1.5,0,2.2-0.6,2.1-1.8v-13.5
			c-0.6-0.4-1.3-0.6-2.2-0.6v-1.1h5.7l11.5,12.5V122c0-1.1-0.1-1.8-0.4-2.1c-0.3-0.3-1-0.5-2.2-0.5h-0.3v-1.1h7.2v1.1h-0.3
			c-1.6-0.1-2.4,0.4-2.3,1.5v15.6h-1.5L233.4,122V133z"/>
		<path class="st1" d="M256.7,122.1l-0.7,10.4c-0.1,1.2,0,2,0.3,2.3c0.3,0.4,1,0.6,2,0.6v1.1h-6.3v-1.1c1,0,1.7-0.2,2-0.6
			c0.3-0.3,0.4-1.1,0.4-2.5l0.7-10.7c0-0.9-0.1-1.5-0.3-1.7c-0.2-0.2-0.8-0.4-1.6-0.5v-1.1h5.9l5.5,12.3l5.3-12.3h6v1.1
			c-1.1,0-1.7,0.1-1.9,0.3c-0.2,0.2-0.3,0.8-0.1,1.8l0.7,10.9c0,1.3,0.1,2.1,0.4,2.3c0.2,0.3,0.9,0.5,2,0.6v1.1h-8.8v-1.1h0.4
			c1.5,0.2,2.3-0.5,2.2-1.9c0-0.5,0-0.9-0.1-1.4l-0.7-10.4l-6.3,14.9h-0.8L256.7,122.1z"/>
		<path class="st1" d="M278.2,118.4h8.9v1.1h-0.4c-1.5,0-2.2,0.7-2.2,2.2v11.6c-0.1,1.5,0.7,2.3,2.2,2.2h0.4v1.1h-8.9v-1.1h0.3
			c1.5,0,2.2-0.7,2.1-2.1v-11.7c0.1-1.5-0.6-2.3-2.1-2.2h-0.3V118.4z"/>
		<path class="st1" d="M292.5,133c-0.1,1.8,0.8,2.6,2.7,2.4v1.1h-6.8v-1.1h0.2c1.5,0,2.2-0.6,2.1-1.8v-13.5
			c-0.6-0.4-1.3-0.6-2.2-0.6v-1.1h5.7l11.5,12.5V122c0-1.1-0.1-1.8-0.4-2.1c-0.3-0.3-1-0.5-2.2-0.5h-0.3v-1.1h7.2v1.1h-0.3
			c-1.6-0.1-2.4,0.4-2.3,1.5v15.6h-1.5L292.5,122V133z"/>
		<path class="st1" d="M335.9,118.4h7.2v1.1h-0.2c-1.8-0.1-2.6,0.7-2.5,2.4v7.3c-0.1,5-2.7,7.5-7.9,7.6c-5.4-0.1-8.2-2.3-8.2-6.6
			v-8.7c0.1-1.4-0.6-2-2-1.9h-0.5v-1.1h8.8v1.1h-0.4c-1.3,0-2,0.6-2,1.9v8.7c0.1,3.1,1.8,4.7,5,4.8c3.6-0.1,5.4-1.9,5.5-5.4v-7.1
			c0.1-2.1-0.7-3.1-2.3-3h-0.4V118.4z"/>
		<path class="st1" d="M348,133c-0.1,1.8,0.8,2.6,2.7,2.4v1.1h-6.8v-1.1h0.2c1.5,0,2.2-0.6,2.1-1.8v-13.5c-0.6-0.4-1.3-0.6-2.2-0.6
			v-1.1h5.7l11.5,12.5V122c0-1.1-0.1-1.8-0.4-2.1c-0.3-0.3-1-0.5-2.2-0.5h-0.3v-1.1h7.2v1.1h-0.3c-1.6-0.1-2.4,0.4-2.3,1.5v15.6
			h-1.5L348,122V133z"/>
		<path class="st1" d="M366.7,118.4h8.9v1.1h-0.4c-1.5,0-2.2,0.7-2.2,2.2v11.6c-0.1,1.5,0.7,2.3,2.2,2.2h0.4v1.1h-8.9v-1.1h0.3
			c1.5,0,2.2-0.7,2.1-2.1v-11.7c0.1-1.5-0.6-2.3-2.1-2.2h-0.3V118.4z"/>
		<path class="st1" d="M379.6,121.9c-0.5-1.1-0.9-1.7-1.2-1.9c-0.4-0.3-1-0.5-1.8-0.5h-0.2v-1.1h9.8v1.1h-0.4
			c-1.2,0-1.9,0.2-2.2,0.6c-0.3,0.4-0.2,1,0.2,1.9l4.4,9.9l4.3-10.8c0.4-1-0.2-1.5-1.8-1.6H390v-1.1h7.1v1.1H397
			c-1.4-0.2-2.5,0.9-3.3,3.1l-5.8,14.2h-1.8L379.6,121.9z"/>
		<path class="st1" d="M404.5,120v6.5h4.6c1.5,0.1,2.2-0.6,2.1-2.1h1.1v5.8h-1.1c0.2-1.5-0.6-2.2-2.5-2.1h-4.2v5.3
			c-0.1,1.1,0.3,1.6,1.1,1.5h4.7c1.8,0.2,2.8-0.8,3.2-3h1.1l-0.3,4.6h-16.9v-1.1h1.1c1.5,0.1,2.3-0.6,2.2-2.1v-11.8
			c0.1-1.5-0.7-2.1-2.4-2.1h-0.3v-1.1h15.5l0.3,4.2h-1.1c-0.2-1.9-0.9-2.8-2-2.6H404.5z"/>
		<path class="st1" d="M422.5,133.3c0,1.5,0.7,2.2,2.2,2.2h0.9v1.1h-9.8v-1.1h0.4c1.7,0.1,2.5-0.6,2.4-2.2v-11.6
			c0.1-1.5-0.6-2.3-2.3-2.2h-0.5v-1.1c0.2,0,0.5,0,0.8-0.1c1.3-0.1,2.3-0.1,2.9-0.1c2-0.2,3.6-0.2,4.6-0.2c4-0.1,6.6,0.6,7.8,2.1
			c0.9,0.9,1.3,2,1.3,3.3c-0.1,2.4-1.5,3.9-4.2,4.7c0.7,0.6,1.5,1.6,2.5,3.1c1,1.3,1.7,2.3,2.3,2.9c1,1.1,2.2,1.8,3.7,1.8v0.9h-1.8
			c-1.7,0-3-0.1-3.8-0.2c-0.9-0.3-1.6-0.8-2.3-1.5c-0.4-0.4-1-1.2-1.9-2.5c-1.3-1.8-2.3-3.1-3.1-3.7h-2.2V133.3z M422.5,127.6
			L422.5,127.6h1.1c3.7,0,5.5-1.4,5.4-4.2c-0.1-2.7-1.7-4.2-4.9-4.2h-1.5V127.6z"/>
		<path class="st1" d="M438.7,131.2h1.1c0.9,2.9,2.5,4.4,4.8,4.4c2-0.1,3-1,3.2-2.9c-0.3-1.8-1.6-3.2-4.1-4.2
			c-2.9-1-4.5-2.9-4.9-5.7c0.2-3,2.1-4.6,5.7-4.8c1,0,2.2,0.2,3.5,0.6c0.4,0.2,0.7,0.2,0.8,0.2c0.1,0,0.3-0.1,0.5-0.2
			c-0.1,0,0,0,0.1-0.1h0.5l0.5,4.7h-1.1c-0.8-2.5-2.3-3.8-4.6-3.9c-1.7,0.1-2.6,0.8-2.7,2.1c0,1,1.1,2.1,3.4,3.4
			c2,1.1,3.5,2.1,4.4,3c1.1,1.2,1.6,2.5,1.6,3.9c-0.3,3.4-2.3,5.1-6,5.3c-1,0-2.2-0.2-3.8-0.6c-0.5-0.2-0.8-0.2-1-0.2
			c-0.2,0-0.4,0.2-0.5,0.5h-0.8L438.7,131.2z"/>
		<path class="st1" d="M453.6,118.4h8.9v1.1H462c-1.5,0-2.2,0.7-2.2,2.2v11.6c-0.1,1.5,0.7,2.3,2.2,2.2h0.4v1.1h-8.9v-1.1h0.3
			c1.5,0,2.2-0.7,2.1-2.1v-11.7c0.1-1.5-0.6-2.3-2.1-2.2h-0.3V118.4z"/>
		<path class="st1" d="M475.3,133.3c-0.1,1.5,0.7,2.3,2.4,2.2h0.7v1.1h-10.1v-1.1h1c1.5,0,2.3-0.7,2.2-2.2v-13.4h-3.4
			c-1.1,0-1.8,0.2-2.1,0.6c-0.3,0.3-0.6,1.3-0.9,2.9h-1.2l0.5-5.5h0.9c0.2,0.2,0.4,0.4,0.5,0.5c0.2,0.1,0.5,0.1,0.8,0.1H480
			c0.6,0.1,1-0.1,1.3-0.6h1l0.4,5.5h-1.1c-0.3-1.6-0.6-2.6-0.9-2.9c-0.3-0.4-1-0.6-2.2-0.6h-3.3V133.3z"/>
		<path class="st1" d="M496.5,133.3c-0.1,1.5,0.7,2.3,2.4,2.2h0.4v1.1h-9.7v-1.1h0.8c1.5,0,2.2-0.7,2.1-2.1v-4.1l-6-8.4
			c-0.4-0.6-0.7-1-1-1.1c-0.3-0.2-0.8-0.2-1.5-0.2h-0.2v-1.1h9.2v1.1h-0.4c-0.7,0-1.1,0.1-1.3,0.3c-0.2,0.3-0.2,0.7,0.1,1.1l4.5,6.2
			l3.3-5.4c0.4-0.8,0.6-1.3,0.4-1.7c-0.2-0.4-0.7-0.6-1.5-0.6h-0.3v-1.1h6.7v1.1c-0.8,0.1-1.4,0.2-1.9,0.5c-0.4,0.2-0.8,0.8-1.3,1.6
			l-4.7,7.7V133.3z"/>
		<path class="st1" d="M526.1,117.8c6.4,0.4,9.7,3.5,10.1,9.3c-0.4,6.3-4,9.5-10.6,9.7c-6.3-0.3-9.7-3.3-10.2-9.1
			C515.8,121.5,519.4,118.2,526.1,117.8 M526.2,135.8L526.2,135.8c3.7-0.2,5.6-2.7,5.8-7.6c-0.3-5.8-2.5-8.9-6.6-9.2
			c-3.7,0.2-5.7,2.7-5.9,7.3C519.8,132.3,522,135.4,526.2,135.8"/>
		<path class="st1" d="M544.7,126.5h4c1.8,0.2,2.6-0.5,2.4-2.1h1.1v5.8h-1.1c0.1-1.4-0.6-2.1-2-2.1h-4.4v4.7
			c-0.1,1.8,0.5,2.7,1.9,2.5h0.5v1.1h-8.3v-1.1h0.4c1.2,0.1,1.7-0.5,1.6-1.7v-11.8c0.1-1.8-0.5-2.6-1.8-2.5h-0.3v-1h14.2v4.1h-1
			c0-1.8-0.6-2.7-1.8-2.5h-5.5V126.5z"/>
		<path class="st1" d="M587.4,131.3c-0.3,1.9-0.8,3.7-1.6,5.3c-0.4-0.1-1-0.1-1.6-0.1c-0.4,0-1,0-1.9,0.1c-1.2,0.2-2.2,0.2-3,0.2
			c-6.3-0.5-9.7-3.6-10.2-9.3c0.6-5.9,4.2-9.1,10.8-9.6c1.4,0,2.9,0.3,4.5,0.9c0.4,0.2,0.7,0.2,0.9,0.2c0.2,0,0.4-0.1,0.5-0.2h0.8
			l0.2,5.2h-1.1c-1-3-2.8-4.5-5.6-4.6c-4.2,0.3-6.5,2.9-6.8,7.8c0.4,5.2,2.7,8,7.1,8.4c2.6-0.1,4.6-1.5,5.8-4.2H587.4z"/>
		<path class="st1" d="M602.6,135.4c1.4,0,2.1-0.8,2.1-2.3V128h-9.3v5.3c0,1.5,0.7,2.2,2.2,2.2h0.4v1.1h-9v-1.1h0.4
			c1.4,0,2.1-0.7,2.1-2.2v-11.7c0-1.4-0.7-2.1-2.1-2.1H589v-1.1h9v1.1h-0.4c-1.5-0.1-2.3,0.6-2.2,2.1v4.7h9.3v-4.6
			c0.1-1.5-0.7-2.3-2.3-2.2h-0.2v-1.1h9v1.1h-0.5c-1.5-0.1-2.2,0.6-2.1,2.1v11.7c-0.1,1.5,0.7,2.3,2.2,2.2h0.4v1.1h-9v-1.1H602.6z"
			/>
		<path class="st1" d="M612.4,118.4h8.9v1.1h-0.4c-1.5,0-2.2,0.7-2.2,2.2v11.6c-0.1,1.5,0.7,2.3,2.2,2.2h0.4v1.1h-8.9v-1.1h0.3
			c1.5,0,2.2-0.7,2.1-2.1v-11.7c0.1-1.5-0.6-2.3-2.1-2.2h-0.3V118.4z"/>
		<path class="st1" d="M626.7,133c-0.1,1.8,0.8,2.6,2.7,2.4v1.1h-6.8v-1.1h0.2c1.5,0,2.2-0.6,2.1-1.8v-13.5
			c-0.6-0.4-1.3-0.6-2.2-0.6v-1.1h5.7l11.5,12.5V122c0-1.1-0.2-1.8-0.4-2.1c-0.3-0.3-1-0.5-2.2-0.5H637v-1.1h7.2v1.1h-0.3
			c-1.6-0.1-2.4,0.4-2.3,1.5v15.6h-1.5L626.7,122V133z"/>
		<path class="st1" d="M651,129.8l-1.1,3.4c-0.4,0.9-0.4,1.5-0.1,1.7c0.3,0.3,1.1,0.5,2.3,0.5h0.3v1.1H645v-1.1h0.4
			c1.2,0.1,2.2-0.8,2.7-2.7l4.8-14l-0.3-0.8h4.2l5.6,14.9c0.6,1.8,1.5,2.6,2.9,2.6v1.1h-9.1v-1.1h1c0.8,0,1.3-0.2,1.5-0.6
			c0.2-0.4,0.1-0.9-0.2-1.6l-1.3-3.4H651z M654,121.3L654,121.3l-2.4,6.9h5L654,121.3z"/>
	</g>
	<g>
		<path class="st0" d="M57.4,132c-0.4-0.2-0.7,0-1.1-0.1c-0.7-0.1-1.8-0.2-2.5-0.4c-0.2-0.1-1.1,0.1-1.4,0.4c0.3,0,0.6-0.1,0.9,0
			c0.2,0,0.5,0.1,0.9,0.2c0.5,0.1,1,0.2,1.4,0.3c0.7,0.1,0.9,0.2,1.3,0.5c0.2,0.1,0.3,0.5,0.3,0.8c0.1,0.5,0,0.7,0,1.1
			c-0.1,0.6-0.4,1.3-0.7,2c-0.2,0.7-0.5,1.5-0.7,1.9c-0.2,0.7-0.7,1.3-1,1.9c0,0.1-0.2,0.4-0.4,0.4c-0.4-0.4-0.9-1.1-1-1.3
			c-0.2-0.1-0.1-0.9,0.1-1.1c0.3-0.3,0.8-0.1,1.2-0.7c0.3-0.4,0.2-0.7,0.8-1.8c0.9-1.4,0.8-1.6,0.4-2.2c-0.1-0.1-0.1-0.2-0.2-0.3
			c-0.3-0.2-0.8-0.3-0.8-0.2c-0.1,0.7,0.2,0.8,0.4,1.1c0.2,0.3-0.4,1-0.9,1.5c-0.1,0.1-0.1,0.2-0.2,0.2c0.1,0,0.1,0.1,0.2,0.1
			c0,0.1-0.1,0.3-0.2,0.5c-0.1,0-0.2-0.1-0.3-0.2c0,0,0.1-0.2,0.1-0.3c-0.1,0-0.2,0-0.2-0.1c-0.2-0.2-0.1-0.6,0-1
			c0-0.2,0.1-0.5,0.1-0.7c0.1-0.2,0.3-0.4,0.3-0.7c0-0.2-0.1-0.4-0.2-0.6c0-0.2,0-0.3,0-0.4c-0.1-0.1-0.1-0.4-0.3-0.5
			c-0.5-0.1-0.6,1.1-0.8,1.3c-0.2,0.1-0.6,0-1,0c-0.2,0-0.4-0.1-0.5,0c-0.1,0.1,0,0.2,0.1,0.4c0.1,0.1,0,0.2,0.1,0.3
			c0,0.1,0.1,0.2,0,0.3c0,0.2-0.2,0.4-0.2,0.5c0.1,0.1,0.3,0.1,0.6,0.2c0,0.2-0.8,0.5-0.8,0.6c0,0.1,0.2,0.1,0.3,0.1
			c0.4-0.1,0.6-0.2,0.9-0.1c0.1,0.3,0.1,0.6,0,0.7c-0.1,0.4-1.4,0.5-2,0.1c0.1-0.2,0.3-0.6,0.2-0.6c-0.3,0-0.5,0.3-0.8,0.4
			c-0.2,0.1-0.3,0.1-0.4,0c0.2-0.6,0.7-2.1,0.9-2.3c0.3-0.3,0.5-0.9,0.5-1.1c0.1-0.3-0.1-0.5-0.2-0.4c-0.6,0.2-1.1,1-1.7,1.9
			c-0.2,0.4-1.3,2.6-1.7,3.7c-0.1,0.3,0.1,0.6,0.3,0.6c0.2,0.1,0.6,0,0.7-0.1c0.2-0.3,0.5-1,0.7-1.5c0.5,0.2,1,0.4,1.4,0.4
			c0.5,0,0.8,0,1.1,0c0.3,0,0.6-0.1,0.7-0.2c0.2,0,0.3,0,0.3,0.1c-0.1,0.2-0.1,0.5-0.2,0.6c-0.5,0.3-0.8,0.5-0.8,0.5
			c0.2,0.1,0.6,0,0.8,0c0,0.1,0.1,0.1,0,0.3c0,0.1,0,0.3-0.2,0.4c-0.2,0.1-0.3,0.2-0.4,0.2c-0.2,0-0.5-0.2-0.8-0.3
			c-0.4-0.1-0.5,0-0.7-0.2c-0.1-0.1,0-0.1,0.1-0.2c0.2-0.1,0.3-0.2,0.3-0.3c-0.2,0-1.2,0.1-1.2,0.2c-0.2,0.5-0.1,0.5-0.1,0.7
			c-0.1,0.4-0.2,0.5-0.1,0.6c0,0.1,0.3,0.2,0.4,0.1c0.4,0,0.4-0.1,0.6-0.1c0.2,0,1.1,0.2,1.6,0.3c0.3,0.1,1.2,0.2,1.3,0.3
			c0.2,0.5,0.5,1,0.6,1.2c0,0.6,0.3,0.8,0.4,1c0.1,0.2-0.2,0.5-0.1,0.5c0,0.1,0.3,0.1,0.4,0.1c0.4,0,0.6-0.2,0.8-0.3
			c0.3-0.1,1-2.4,1.8-4.2c0.4-1.1,0.6-2.2,1.1-3.3c0.1-0.4,0.3-0.9,0.3-1.3c0.1-0.6-0.1-1-0.2-1.4C58.1,132.5,58,132.3,57.4,132
			 M74.7,145.5L74.7,145.5c-1.3-0.5-2.4-1.1-3.7-2.2c-1.5-1.2-2.6-2.5-2.8-2.3c-0.2,0.2,0.5,0.9,1.1,1.6c0.7,0.9,1.1,1.1,1.6,1.7
			c0.6,0.7,1,1.5,1.6,1.8c0.5,0.3,0.9,0.4,1.3,0.4c0.4,0,0.7,0.1,1.2,0c0.4-0.1,0.3-0.3,0.2-0.5C75.2,145.9,75,145.6,74.7,145.5
			 M69.5,137L69.5,137c0-0.1-0.1-0.1-0.2-0.1c-0.1,0-0.2,0-0.3,0.1c-0.7,0.8-1.2,1.4-1.9,2.2c-0.6,0.7-1,1.4-1.4,1.9
			c-0.9,1.1-1.4,1.9-2.5,3.1c-0.1,0.1-0.2,0.2-0.2,0.3c0,0.1-0.2,0.4,0,0.4c0.2,0,0.3,0,0.4,0c0.2-0.1,0.9-0.4,1.3-0.7
			c0.5-0.5,1.4-2,2.2-3.1c0.5-0.7,1.2-1.4,1.6-2C69.3,138,69.5,137.2,69.5,137 M43,127.5L43,127.5c-0.4,0.4-1.3,0.8-2.6,0.1
			c-0.2-0.1-0.7-0.2-0.6-0.4c0.4-0.5,1-1.1,1.5-1.5c-0.1-0.1-0.1-0.2-0.2-0.3c-0.1-0.2,0.1-0.4,0.4-0.7c0.3-0.2,0.5-0.4,0.7-0.6
			c0.1-0.1,0-0.4-0.1-0.5c-0.2-0.2-0.3-0.8-0.6-0.7c-0.3,0.1-0.2,0.1-0.4,0.4c-0.1,0.1-0.1,0.2-0.3,0.4c-0.2,0.3-0.7,0.7-0.8,0.7
			c-0.6-0.1-1.4-0.6-1.9-0.8c-0.2-0.2-0.1-0.6-0.2-0.9c-0.1-0.2-0.2-0.5-0.4-0.5c0,0-0.1,0.1-0.1,0.1c-0.2,0.3-0.3,0.6-0.4,1
			c-0.3,0.5-0.7,1.1-1,1.7c0,0.1-0.1,0.1-0.1,0.2c0,0.2,0,0.2,0.1,0.4c0.1,0.1,0.2,0.2,0.3,0.1c0.4-0.3,0.9-1,1.3-1.3
			c0.2-0.1,0.3-0.3,0.4-0.2c0.2,0.1,0.5,0.3,0.7,0.6c0.2,0.2,0.4,0.4,0.4,0.4c-0.5,0.5-1.1,1.1-1.4,1.4c-0.8-0.6-0.7-0.4-1-0.3
			c-0.1,0.2,0.5,0.6,0.4,0.8c-0.8,0.8-2,1.8-2.9,2.7c-0.3,0.3-0.6,0.7-0.8,1c-0.2,0.3-0.5,0.6-0.6,0.9c-0.1,0.3-0.1,0.4,0,0.5
			c0,0,0.1,0.1,0.2,0.1c0.4,0,0.5,0,1-0.3c0.2-0.2,0.5-0.5,1-1c0.3-0.3,2.1-1.8,2.3-2.1c0.4-0.3,0.6-0.5,0.8-0.7
			c0.2,0,0.5,0.3,1.1,0.5c0.3,0.1,0.5,0.2,0.8,0.3c0.1,0,0.4,0,0.7,0.3c1,0.8,1.2,0.9,1.4,0.8c0.6-0.5,0.4-0.4,0.6-0.8
			c0.3-0.5,0.5-1,0.3-1.4C43.2,127.7,43.1,127.6,43,127.5 M41.8,126.2L41.8,126.2c0.5,0.4,0.9,0.8,1.2,1.2c0.1-0.1,0.2-0.3,0.2-0.3
			c-0.1-0.1-0.1-0.2-0.3-0.3c-0.7-0.5-1.3-1.3-1.5-1.2c0,0-0.1,0.1-0.1,0.1C41.4,125.9,41.6,126,41.8,126.2 M108,140L108,140
			c-0.3-0.1-0.8,0.1-1.4,0c-0.9-0.2-1.3-0.5-2.6-1.2c-0.3-0.2-0.6-0.3-0.9-0.5c-0.5-0.3-0.8-0.5-1.2-0.8c-0.1-0.1-0.5-0.3-0.2-0.6
			c0.5-0.5,1-1.1,1.5-1.6c0.4-0.2,0.8-0.3,1.3-0.5c0.1,0,0.1-0.1,0.1-0.2c0-0.2,0-0.4-0.2-0.5c-0.3-0.1-0.3-0.1-0.6-0.1
			c-0.3,0-0.6,0-0.9,0.2c-0.5,0.2-0.9,0.8-1.3,1.2c-0.2,0.2-0.5,0.5-0.6,0.6c-0.2,0.1-0.3,0.2-0.4,0.2c-0.3-0.5-0.5-1.6-0.5-2.4
			c0,0-0.1-0.4-0.2-0.5c-0.1-0.1-0.3-0.1-0.4-0.1c-0.5-0.1-0.9-0.1-1,0.2c0.2,0.7,0.4,1.3,0.6,1.8c0.2,0.8,0.5,1.5,0.4,1.9
			c-0.2,0.3-0.6,0.9-1.3,1.3c-0.2,0.1-0.4,0.1-0.6,0.2c-0.2,0.1-0.3,0.1-0.4,0.1c-0.2,0.1-0.2,0.2-0.2,0.4c0.2,0.4,0.3,0.3,0.7,0.3
			c0.4,0,0.6-0.1,0.8-0.2c0.4-0.3,0.6-0.4,1.1-0.7c0.1,0,0.2,0.1,0.2,0.3c0.1,1,0.1,1.6,0,2.4c-0.1,0.8-0.2,1.5-0.5,2.2
			c-0.2,0.4-0.1,0.6,0.1,0.6c0.1,0,0.1-0.1,0.4-0.5c0.3-0.3,0.7-0.7,0.8-0.9c0.2-0.4,0.2-0.8,0.4-1.7c0-0.5,0-1-0.3-2.7
			c0-0.1,0-0.2,0-0.2c0-0.1,0-0.1,0.1-0.3c0.1-0.2,0.2-0.3,0.3-0.4c0.6,0.6,1,1.1,1.3,1.4c0.2,0.2,0.5,0.3,0.8,0.5
			c1,0.7,2,1.4,3,1.9c0.5,0.2,1.3-0.2,2.1-0.4c0.1,0,0.4-0.3,0.4-0.4C108.6,140.3,108.6,140.2,108,140 M113.1,125L113.1,125
			c0-0.1,0-0.2-0.1-0.2c0,0-0.2,0.2-0.4,0.3c0,0,0.1,0.1,0.1,0.1C112.9,125.2,113,125.1,113.1,125 M119.9,130L119.9,130
			c0.3-0.2,0.6-0.3,0.7-0.4c0.3-0.1,0.6-0.1,0.8-0.2c0.3-0.2,0.1-0.5,0-0.6c-0.2-0.1-0.6-0.2-0.7-0.2c-0.2,0-0.6,0.4-1.2,0.9
			c-0.1,0.1-0.1,0.1-0.2,0.2c-0.1,0.1-0.2,0.1-0.2,0.1c-0.2-0.1-0.4-0.4-0.4-0.6c-0.1-0.2-0.1-0.5-0.1-0.6c-0.1-0.3-0.4-0.5-0.5-0.7
			c-0.1-0.3,0-0.4,0.1-0.7c0-0.2,0.3-0.4,0.5-0.5c0.1-0.1,0.3,0,0.4,0c0.3-0.2,0.6-0.4,0.9-0.5c0.3-0.3,0.2-0.4-0.2-0.8
			c-0.4-0.4-1.2-0.5-1.7-0.4c-0.3,0-0.8-0.8-1.2-1.6c-0.2-0.4-0.3-0.7-0.4-1.1c-0.4-0.8-0.8-1-0.9-0.9c-0.2,0-0.3,0.1-0.5,0.3
			c-0.1,0.1-0.1,0.1-0.2,0.2c0.2,0.2,0.3,0.4,0.2,0.5c-0.1,0.2-0.5,0.4-0.6,0.8c-0.2,0.2-0.4,0.3-0.6,0.5c-0.1,0.1-0.2,0.1-0.2,0.2
			c-0.1-0.2-0.2-0.8-0.3-1.1c0,0,0,0,0.1-0.1c-0.1,0-0.2,0-0.1,0.2c0,0.2,0.2,0.5,0.2,0.8c0.1,0.4,0.2,0.8,0.1,0.9
			c-0.1,0.1-0.3,0.3-0.5,0.4c0,0.3,0,0.7,0,0.7c0,0.1-0.1,0.2-0.2,0.3c-0.1-0.2-0.5-0.7-0.5-0.8c0.1,0,0.2-0.1,0.3-0.2
			c-0.1-0.2-0.3-0.4-0.5-0.4c-0.2,0-0.5,0.1-0.5,0.2c-0.1,0.2,0.8,1.1,1.6,2.3c0.6,0.8,1.1,1.9,1.4,2.3c-0.2,0.6-0.5,1.1-0.7,1.7
			c-0.1,0.2-0.3,0.4-0.5,0.5c-0.2-0.2-0.4-0.2-0.5-0.3c-0.3-0.1-0.4-0.1-0.6,0c0,0-0.3,0.1-0.2,0.3c0.1,0.3,0.4,0.6,0.6,1
			c0.1,0.2,0.8,2.1,0.9,2.2c0.2,0.1,0.4,0.2,0.5,0.1c0.3-0.1,0.5-0.3,0.5-0.7c0.1-0.6-0.8-1.8-0.8-2.2c0.1-0.2,0.3-0.5,0.4-0.6
			c0.2-0.3,0.1-0.4,0.6-1.2c0.3-0.5,0.6-0.8,0.8-1.2c0.4-0.6,0.4-0.8,0.5-1.1c0.2-0.3,0.6-0.4,0.9-0.8c0.1-0.1,0.2-0.3,0.3-0.5
			c0.1-0.2,0.2-0.2,0.4-0.4c0.1-0.1,0.2-0.1,0.3-0.1c0.3,0,0.3,0,0.2,0.3c-0.3,0.5-0.5,0.9-0.5,1.5c-0.1,0.1-0.1,0.1-0.3,0.4
			c-0.1,0.1-0.2,0.3-0.3,0.5c-0.4,0.5-0.9,1-1.4,1.6c-0.1,0.1,0,0.2,0.1,0.3c0.1,0.1,0.7,0,1-0.2c0.2-0.1,0.2-0.4,0.3-0.6
			c0.1-0.2,0.3-0.9,0.5-0.5c0.2,0.3,0.3,0.5,0.4,0.7c0.1,0.2,0.3,0.4,0.4,0.6c-0.1,0.3-0.3,0.6-0.5,0.9c-0.3,0.4-0.8,0.8-1.2,1.4
			c-0.3,0.5-0.2,1.1-0.1,1.2c0.3,0,0.8-0.5,1.2-1.2c0.3-0.5,0.5-1,0.7-1.5c0-0.2,0.3-0.4,0.5-0.1c0.3,0.4,0.1,0.6,0.3,0.9
			c0.1,0.3-0.4,0.7-1,1.1c-0.2,0.2-0.7,0.5-0.8,0.6c-0.1,0.2,0.4,0,0.6-0.1c0.3,0,0.5-0.2,0.9-0.4c0.7-0.2,1-0.1,1.3-0.3
			c0.2-0.1,0.6-0.6,0.5-1.1c-0.1-0.5-0.6-1-1.2-1.7c-0.1-0.1-0.1-0.2,0-0.2C119.8,130.1,119.9,130,119.9,130 M114.6,128L114.6,128
			c0,0-0.2,0-0.3-0.1c-0.2-0.2-0.6-0.7-1-1.3c0-0.2,0.2-0.4,0.2-0.6c0-0.1,0-0.2,0.5,0c0.2,0,0.3,0.1,0.4,0.2
			C114.6,127.3,114.7,127.7,114.6,128 M114.6,125.5L114.6,125.5c-0.4,0-0.6,0-0.9-0.1c0-0.4,0.1-0.8,0.1-1.2
			c0.2-0.1,0.4-0.4,0.5-0.5c0.1,0,0.3,0.1,0.4,0.3C114.7,124.2,114.6,125.4,114.6,125.5 M115.1,123.2L115.1,123.2
			c0.1-0.1,0.2-0.3,0.4-0.2c0.1,0.1,0.3,0.6,0.4,0.8c0,0.1-0.6,0.4-0.6,0.4C115.2,123.9,115,123.5,115.1,123.2 M116.1,127.4
			L116.1,127.4c-0.1,0.1-0.2,0.1-0.2,0.1s-0.1-0.2,0-0.4c0,0,0.2-0.1,0.2,0.1C116.1,127.3,116.1,127.3,116.1,127.4 M115.9,125.9
			L115.9,125.9c-0.2-0.1-0.5-0.2-0.7-0.3c0-0.4,0.1-0.7,0.1-0.8c0.3-0.2,0.7-0.6,0.8-0.5c0.2,0.5,0.3,0.7,0.4,1
			C116.5,125.9,116.4,126.2,115.9,125.9 M114.9,121.9L114.9,121.9C114.9,121.9,114.9,121.9,114.9,121.9c-0.2-0.2-0.2-0.2-0.2-0.1
			c0,0-0.9,0.7-1.2,0.9c0.1,0,0.3,0.1,0.3,0.2C114.2,122.5,114.6,122.2,114.9,121.9 M113.5,129.4L113.5,129.4
			c0.2-0.1,0.3-0.2,0.3-0.3c0-0.3-1.9-2.3-2.2-2.3c-0.2-0.1-1.4,0.2-1.2,0.4c0.2,0.3,0.5,0.3,0.8,0.6c0.8,0.7,1.7,1.5,1.8,1.6
			C113.3,129.4,113.4,129.4,113.5,129.4 M90.7,142.3L90.7,142.3c-0.2,1-0.5,1.9-1.1,2.4c-0.1,0.1-0.4,0.3-0.6,0.3
			c-0.3,0-0.6-0.3-0.8-0.7c-0.5-0.8-0.8-1.7-0.8-2.3c0.3-0.2,0.7-0.5,1.2-0.8c0.3-0.4,0.6-0.8,0.5-1c-0.1-0.1-0.2-0.1-0.9,0.1
			c-0.5,0.2-0.9,0.5-1.1,0.6c-0.2,0-0.3-0.4-0.6-0.5c-0.3-0.2-0.8-0.1-0.8,0c-0.2,0.4,0,1.3,0,1.8c-0.1,0.2-1.1,1.1-1.4,1.5
			c-0.1,0.1-0.2-2.1-0.2-3.8c0-0.3,2.2-0.2,2.4-0.4c0.3-0.2,0.7-1.1,0.9-1.6c0.2-0.5,0.4-0.9,0.2-1.4c-0.1-0.2-0.1-0.3-0.5-0.3
			c-0.4,0-0.5,0.3-0.7,0.4c-0.2,0.1-0.7,0.1-1,0.2c-0.3,0.2-0.7,0.5-1,0.7c-0.4,0.2-0.4,0.5-0.4,0.6c1.2-0.5,1.4-0.5,1.7-0.6
			c0.1,0,0,0.1,0,0.3c0,0.6-0.3,0.9-0.4,1.4c-0.4,0.1-0.8,0.1-1.2,0c-0.3,0-0.7-0.3-1-0.3c-0.2,0-0.7,0.2-0.7,0.5
			c-0.1,0.7,0.1,1.4,0.1,2.3c0,1.5,0,3.4,0,4.6c0,0.2,0.1,0.5,0.2,0.6c0.1,0.1,1.1,0.1,1.4-0.1c0.3-0.2,0.2-0.8,0.2-1.9
			c0-0.1,0.1-0.2,0.2-0.3c0.3-0.5,0.9-0.9,1.6-1.4c0.4,1.1,1,2.1,1.6,2.9c0.4,0.3,1.7,0.6,2.3,0c1.1-1.1,1.2-1.9,1.4-3
			c0-0.2,0-0.3,0-0.8C90.9,142,90.7,142,90.7,142.3 M54.2,136.2L54.2,136.2c0,0-0.1,0.1-0.1,0.2c0.1,0,0.1-0.1,0.2-0.1
			C54.3,136.2,54.2,136.2,54.2,136.2"/>
		<path class="st1" d="M67.2,116.1c0.7-0.3,1.4-0.7,2-1.2h1.6v8h-1.8v-6.3c-0.6,0.4-1.2,0.8-1.9,1V116.1z"/>
		<path class="st1" d="M74.7,120.9c0.1,0.7,0.4,1,0.9,1c0.9,0,1.3-0.8,1.2-2.5c-0.5,0.4-1,0.5-1.6,0.5c-1.4-0.2-2.2-1-2.4-2.4
			c0.1-1.7,1.1-2.6,2.8-2.7c2,0,2.9,1.2,2.9,3.6c0,1.7-0.2,2.9-0.6,3.6c-0.5,0.7-1.2,1.1-2.3,1.1c-1.7,0-2.6-0.7-2.7-2.1H74.7z
			 M75.7,118.7L75.7,118.7c0.7,0,1-0.5,1-1.4c0-0.9-0.4-1.4-1-1.4c-0.8,0-1.1,0.5-1.1,1.4C74.6,118.3,74.9,118.7,75.7,118.7"/>
		<path class="st1" d="M81,120.7c0,0.7,0.4,1.1,1,1.2c0.6-0.1,1-0.5,1-1.2c0-0.9-0.7-1.3-1.9-1.3v-1.1c1.3,0,2-0.5,1.9-1.3
			c0-0.7-0.4-1.1-1-1.1c-0.5,0.1-0.9,0.5-0.9,1.1h-1.8c0.1-1.4,1-2.2,2.7-2.3c1.7,0.2,2.6,0.8,2.7,2c0,1.1-0.5,1.7-1.5,2
			c1.1,0.3,1.6,1,1.6,2.2c-0.2,1.3-1.1,2-2.8,2.1c-1.8,0-2.7-0.8-2.7-2.3H81z"/>
		<polygon class="st1" points="90.9,114.9 90.9,116.4 88.4,122.9 86.7,122.9 89.3,116.2 85.7,116.2 85.7,114.9 		"/>
		<path class="st0" d="M56.3,34.6c1,0,2.1,0.3,2.4,0.5c0.4,0.3,1.3,1.3,1.3,2c0.2,4.3-1.7,6.8-0.9,11.2c1.1,5.5,3.7,9.7,4.8,14.8
			c4.5-1.2,10.6-8.3,11.5-13.1c0.5-2.7-0.1-5.7-0.6-8.3c-0.4-2-0.9-3.6-0.2-5.5c0.5-1.3,1.9-1.5,3.3-1.6c2.4,0.1,3,0.9,3.6,2.2
			c0.9,2.8-1.5,4.4-0.8,9.7c0.7,5.4,3.5,14.4,5.8,16.4c4.1-2.9,9.3-7.3,10.6-12.9c1-4.6-3.7-12.4-0.1-14.6c1.8-1.2,3.8-1,5.1,0
			c0.4,0.3,0.7,0.9,0.9,1.2c0.2,0.2,0.3,1.2,0.2,2.5c-0.1,1.1-0.7,2.3-0.9,3.8c-0.3,2.7-0.1,5.9,0.5,8.2c1.5,5.7,6.9,11.7,5.1,19.6
			c-1.7,7.4-7.1,9.1-8.5,20.5c-0.8,6.6,4.1,15.6,3.4,19.4c-0.2,1.1-0.5,1.9-1.8,2.5c-1.3,0.5-2.6,0.1-3.2-0.5
			c-3.4-1.8-5.4-14.7-4.2-22.4c1.1-6.8,3-10.3,7.6-17.7c1.8-4.6,1.6-9.4-2-14.6c-3.6,4-7.4,8.1-12.9,11.1
			c-0.2,7.7-7.4,12.3-8.5,20.7c-0.4,2.8,0.1,8,1.7,12.6c1.9,5.2,2.5,8.8,0.4,10.2c-1.3,0.7-2.2,0.8-3.6,0.2c-1.1-0.5-2.7-4-3.6-8.5
			c-1.3-6.6-1.4-15.5,0.8-21.2c2.5-6.3,9.2-10.6,6.6-19c-0.5-1.8-1.2-4.2-2.5-6.1c-0.2,0.1-0.3,0.2-0.5,0.2
			c-2,4.3-8.2,8.7-12.4,10.8c-0.2,7.3-8,12.3-8.5,21c-0.7,10.2,3.4,14.5,3.2,20.7c-0.1,1-0.6,1.8-1.6,2.3c-1,0.4-1.8,0.4-3,0
			c-3.6-1.3-7.7-18.9-1.8-32.7c1.6-3.8,4.9-6.3,6-10.8c1.1-4.5-3-11.7-3-11.7s-9.6,12-15,11.5c-1-0.7-1.5-0.8-1.6-2.5
			c0-1.8,3-3.1,4.8-4.6c3.5-2.9,7.1-5.7,9.2-10.4c2.1-4.6-0.9-9.4-0.4-15.2C52.9,35.1,54.3,34.6,56.3,34.6"/>
		<path class="st1" d="M20.1,92.1l0.5,2.2l-9.9,2.3l-1-4.3c-0.5-2.3,0.1-3.6,1.8-4c1.3-0.3,2.2,0.2,2.9,1.5l0.1,0
			c-0.2-1.1,0.4-1.9,1.8-2.3c0.1-0.1,0.2-0.1,0.3-0.1c1.2-0.4,1.9-0.7,2.2-1.1l0.5,2.3c-0.8,0.4-1.7,0.7-2.6,1
			c-0.8,0.3-1.2,0.7-1.1,1.2l0.5,2.3L20.1,92.1z M14.4,93.4L14.4,93.4L14,91.6c-0.2-1-0.8-1.4-1.7-1.2c-0.9,0.2-1.1,0.8-0.9,1.8
			l0.4,1.8L14.4,93.4z"/>
		<polygon class="st1" points="8.4,85.5 8,78.7 9.7,78.6 10,83.2 12.3,83 12,78.7 13.7,78.6 14,82.9 16.7,82.7 16.4,77.9 18.1,77.8 
			18.6,84.8 		"/>
		<polygon class="st1" points="18.5,71.2 9.8,74.5 9.8,74.6 18.2,75.2 18,77.3 7.9,76.5 8.1,73.2 16.4,70 16.4,69.9 8.5,69.3 
			8.6,67.3 18.7,68.1 		"/>
		<polygon class="st1" points="20.5,61 20,62.8 10.9,63.1 10.9,63.1 19.3,65.4 18.7,67.4 8.9,64.7 9.9,61.2 17.6,61.1 17.6,61.1 
			11.1,56.9 12,53.6 21.8,56.2 21.3,58.2 12.9,55.9 12.8,55.9 		"/>
		
			<rect x="17.5" y="46.3" transform="matrix(0.4085 -0.9128 0.9128 0.4085 -35.848 47.3932)" class="st1" width="2.2" height="10.1"/>
		<polygon class="st1" points="27.7,45.3 18.4,44.3 18.4,44.4 25.5,48.8 24.5,50.5 15.8,45.2 17.6,42.4 26.4,43.3 26.4,43.3 
			19.6,39.1 20.7,37.3 29.3,42.7 		"/>
		<path class="st1" d="M32.8,24.3l4.4,4.6c1.7,1.9,1.5,3.9-0.5,5.9c-2.2,2-4.1,2-5.9,0.3l-4.4-4.6l1.6-1.5l3.8,4
			c0.8,0.9,1.5,1.4,2,1.5c0.6,0.1,1.2-0.1,1.9-0.7c0.6-0.6,0.9-1.2,0.8-1.8c-0.1-0.5-0.5-1.2-1.4-2.1l-3.8-4L32.8,24.3z"/>
		<polygon class="st1" points="45.4,27.8 37.4,23.1 37.4,23.1 42,30.1 40.4,31.2 34.7,22.8 37.4,21 45.1,25.5 45.1,25.4 40.6,18.8 
			42.3,17.6 48,26.1 		"/>
		<rect x="47.7" y="15" transform="matrix(0.8962 -0.4436 0.4436 0.8962 -3.8466 23.7394)" class="st1" width="2.2" height="10.1"/>
		<polygon class="st1" points="50.7,13.5 52.9,12.7 58,19.5 58,19.5 58,11 60.1,10.4 59.7,21.2 57.5,21.9 		"/>
		<polygon class="st1" points="62.8,9.8 69.6,8.7 69.8,10.4 65.3,11.1 65.6,13.5 69.9,12.8 70.2,14.4 65.9,15.1 66.3,17.8 71.1,17 
			71.4,18.7 64.4,19.8 		"/>
		<path class="st1" d="M74.8,18.5l-2.2,0L72.5,8.4l4.4-0.1c2.3,0,3.5,0.9,3.6,2.6c0,1.3-0.7,2.2-2.1,2.5l0,0.1
			c1.1,0,1.8,0.8,1.9,2.2c0,0.1,0.1,0.3,0.1,0.3c0.1,1.2,0.3,2,0.6,2.4l-2.4,0c-0.2-0.9-0.4-1.8-0.4-2.7c-0.1-0.9-0.4-1.3-1-1.3
			l-2.3,0L74.8,18.5z M74.7,12.8L74.7,12.8l1.8,0c1,0,1.5-0.5,1.5-1.5c0-0.9-0.5-1.3-1.6-1.2l-1.8,0L74.7,12.8z"/>
		<path class="st1" d="M88.2,12.1c0.1-1-0.4-1.6-1.4-1.7c-1.1-0.1-1.7,0.3-1.8,1.1c-0.2,0.8,0.4,1.3,1.7,1.7c0,0,0.1,0,0.3,0.1
			c2.3,0.8,3.4,1.9,3.1,3.2c-0.3,2.1-1.9,3-4.8,2.7c-2.6-0.4-3.8-1.6-3.5-3.8l2.2,0.3c-0.2,1.2,0.3,1.9,1.5,2.1
			c1.3,0.1,2.1-0.2,2.2-1c0.1-0.7-0.5-1.2-1.7-1.7c-0.2-0.1-0.3-0.1-0.4-0.2c-2.2-0.8-3.2-1.9-3-3.2c0.4-2,1.9-3,4.7-2.8
			c2.2,0.4,3.2,1.6,3,3.6L88.2,12.1z"/>
		
			<rect x="88.6" y="14.3" transform="matrix(0.2464 -0.9692 0.9692 0.2464 55.6165 102.3556)" class="st1" width="10.1" height="2.2"/>
		<polygon class="st1" points="99.5,11.7 107.2,14.8 106.6,16.4 103.8,15.3 100.7,23.1 98.6,22.3 101.7,14.4 98.9,13.3 		"/>
		<polygon class="st1" points="109.4,23.8 110,16.1 112.2,17.5 111.6,22.6 115.9,19.7 117.8,20.9 111.3,24.9 109.5,27.7 107.7,26.6 
					"/>
		<path class="st1" d="M121.1,30c2.6-2.3,5-2.3,7.2-0.1c2.1,2.3,1.9,4.7-0.5,7.2c-2.5,2.2-4.9,2.2-7.1,0
			C118.6,34.7,118.7,32.4,121.1,30 M122.7,31.7L122.7,31.7c-1.8,1.7-2.1,3.2-0.9,4.4c1.2,1.2,2.6,1,4.4-0.7c1.8-1.7,2.1-3.2,1-4.4
			C126,29.7,124.5,30,122.7,31.7"/>
		<polygon class="st1" points="125,41.9 133.4,36.1 137.1,41.6 135.7,42.5 133.2,38.9 131.2,40.2 133.5,43.7 132.1,44.6 129.8,41.2 
			126.2,43.6 		"/>
		<path class="st1" d="M140.2,56.1c1.1-0.5,1.5-1.4,1.1-2.5c-0.5-1.1-1.9-1.3-4.2-0.5c-2.2,0.9-3.1,2-2.7,3.1
			c0.5,1.2,1.3,1.6,2.5,1.2l0.8,2.2c-2.1,0.7-3.7-0.3-4.7-2.8c-0.9-2.6,0.2-4.5,3.3-5.8c3.3-1.1,5.4-0.4,6.5,2.1
			c0.9,2.6,0.3,4.3-1.8,5.3L140.2,56.1z"/>
		<polygon class="st1" points="135,61.9 144.9,59.9 145.3,62 141.4,62.8 142.2,66.6 146.1,65.8 146.5,68 136.6,70 136.2,67.8 
			140.5,67 139.8,63.1 135.4,64 		"/>
		
			<rect x="136.7" y="72" transform="matrix(0.9979 -6.497170e-02 6.497170e-02 0.9979 -4.4506 9.3688)" class="st1" width="10.1" height="2.2"/>
		<polygon class="st1" points="136.6,82.9 145.3,79.5 145.3,79.5 136.9,78.9 137.1,76.9 147.2,77.6 146.9,80.8 138.7,84.1 
			138.7,84.2 146.7,84.7 146.5,86.8 136.4,86.1 		"/>
		<path class="st1" d="M136.2,87.5l8.9,6.2l-0.7,2.5l-10.7,0.9l0.6-2.1l2.3-0.2l1-3.9l-1.9-1.3L136.2,87.5z M138.3,94.6L138.3,94.6
			l4.5-0.2l0-0.1l-3.8-2.6L138.3,94.6z"/>
		<path class="st0" d="M77.5,21C46.3,21,21,46.3,21,77.5c0,31.3,25.3,56.6,56.6,56.6c31.3,0,56.6-25.3,56.6-56.6
			C134.1,46.3,108.8,21,77.5,21 M77.5,130.8L77.5,130.8c-29.4,0-53.2-23.8-53.2-53.2c0-29.4,23.8-53.2,53.2-53.2
			c29.4,0,53.2,23.8,53.2,53.2C130.8,106.9,106.9,130.8,77.5,130.8"/>
		<path class="st0" d="M77.5,3.4C36.6,3.4,3.4,36.6,3.4,77.5c0,40.9,33.2,74.1,74.1,74.1c40.9,0,74.1-33.2,74.1-74.1
			C151.7,36.6,118.5,3.4,77.5,3.4 M77.5,149.6L77.5,149.6c-39.8,0-72.1-32.3-72.1-72.1c0-39.8,32.3-72.1,72.1-72.1
			c39.8,0,72.1,32.3,72.1,72.1C149.6,117.4,117.4,149.6,77.5,149.6"/>
		<path class="st0" d="M77.5,0C34.7,0,0,34.7,0,77.5c0,42.8,34.7,77.5,77.5,77.5c42.8,0,77.5-34.7,77.5-77.5
			C155.1,34.7,120.4,0,77.5,0 M77.5,153.3L77.5,153.3c-41.9,0-75.8-33.9-75.8-75.8c0-41.9,33.9-75.8,75.8-75.8
			c41.9,0,75.8,33.9,75.8,75.8C153.3,119.4,119.4,153.3,77.5,153.3"/>
	</g>
</g>
</svg>
